# Blender v2.79 (sub 0) OBJ File: 'Rock.blend'
# www.blender.org
o Cube
v 0.980887 -1.001975 -3.027645
v 0.987834 -0.981684 -3.046358
v 1.004384 -0.980922 -3.014020
v 0.980936 -1.001053 0.988324
v 1.004610 -0.981002 0.986390
v 0.986713 -0.982978 1.016034
v -0.893449 -0.895994 1.501516
v -0.916311 -0.895710 1.479486
v -0.889730 -0.917042 1.478728
v -0.986549 -0.982269 -3.431300
v -0.981089 -1.002477 -3.416354
v -1.004535 -0.980843 -3.397390
v 0.984586 0.614411 -2.774462
v 0.977840 0.631185 -2.747956
v 1.000543 0.610377 -2.750062
v 0.984817 0.581124 1.011452
v 1.000628 0.578902 0.986905
v 0.977787 0.598133 0.985363
v -1.004782 0.433242 0.989558
v -0.984846 0.439154 1.017654
v -0.981026 0.457178 0.985778
v -1.003916 0.612096 -2.749318
v -0.980742 0.633980 -2.748137
v -0.984724 0.614853 -2.775435
v 1.039747 -1.003986 -0.859006
v 1.040026 -1.003955 -0.898313
v 1.066149 -0.981906 -0.901095
v 1.066027 -0.981901 -0.862201
v -1.091881 -1.004604 -0.654333
v -1.090944 -1.003780 -0.615397
v -1.115288 -0.980581 -0.616125
v -1.116376 -0.981374 -0.655156
v 0.978202 0.715263 -0.862405
v 0.978207 0.715579 -0.900794
v 0.947749 0.739117 -0.900568
v 0.947761 0.738787 -0.861987
v -0.981822 0.731348 -0.900669
v -1.007905 0.706746 -0.898142
v -1.008175 0.704208 -0.858527
v -0.981812 0.729520 -0.861969
v 1.149208 -0.149998 -3.086526
v 1.167248 -0.149775 -3.055368
v 1.167273 -0.187432 -3.067173
v 1.148443 -0.187130 -3.097589
v 1.147411 -0.169487 1.300385
v 1.147430 -0.205297 1.300585
v 1.167256 -0.206136 1.272650
v 1.167166 -0.168323 1.272800
v -1.168240 -0.258622 1.305761
v -1.188660 -0.252745 1.272698
v -1.185339 -0.290801 1.292256
v -1.163186 -0.292382 1.315403
v -1.158593 -0.148169 -3.054780
v -1.141586 -0.149907 -3.088183
v -1.140396 -0.186735 -3.104036
v -1.158724 -0.186682 -3.070050
v -1.367454 -0.130597 -0.766286
v -1.367304 -0.131899 -0.727027
v -1.364953 -0.095112 -0.732505
v -1.364965 -0.094249 -0.771709
v 1.350055 -0.258528 -0.871859
v 1.350057 -0.258360 -0.910607
v 1.344089 -0.225815 -0.910703
v 1.344072 -0.225965 -0.871836
v -0.124706 -1.089339 -3.653808
v -0.093280 -1.089943 -3.653737
v -0.089239 -1.109899 -3.630552
v -0.127753 -1.109426 -3.631301
v -0.069629 -1.054273 1.559318
v -0.031375 -1.056644 1.548360
v -0.034452 -1.035975 1.576025
v -0.071256 -1.033371 1.583681
v -0.129701 0.744805 -2.989760
v -0.090951 0.745248 -2.991914
v -0.089816 0.728872 -3.024962
v -0.127416 0.728443 -3.023990
v -0.129388 0.615316 1.241009
v -0.127185 0.595235 1.271546
v -0.089777 0.598209 1.272530
v -0.090845 0.618455 1.242988
v -0.251263 0.991499 -0.855235
v -0.251285 0.992667 -0.893933
v -0.286852 0.994833 -0.893822
v -0.286864 0.993698 -0.855474
v -0.126927 -1.237158 -0.696471
v -0.127418 -1.237983 -0.735396
v -0.089463 -1.238587 -0.739813
v -0.089080 -1.237791 -0.700687
v -0.139358 -0.182921 -3.888062
v -0.140788 -0.148368 -3.867834
v -0.106152 -0.148636 -3.870133
v -0.107341 -0.182807 -3.889770
v -0.143014 -0.224430 1.774562
v -0.141577 -0.259842 1.779923
v -0.104140 -0.258620 1.776711
v -0.105204 -0.222593 1.771000
vt 0.783853 0.816114
vt 0.703794 0.835118
vt 0.666704 0.509173
vt 0.779402 0.516656
vt 0.546414 0.810181
vt 0.394597 0.798771
vt 0.445204 0.671809
vt 0.550775 0.693665
vt 0.337148 0.298864
vt 0.435017 0.317028
vt 0.404063 0.614346
vt 0.275034 0.561029
vt 0.439364 0.317544
vt 0.534560 0.325138
vt 0.522844 0.589477
vt 0.408974 0.614617
vt 0.547208 0.975787
vt 0.441134 0.999993
vt 0.394360 0.803686
vt 0.546333 0.815542
vt 0.896643 0.799601
vt 0.786914 0.820855
vt 0.794168 0.700550
vt 0.887174 0.660044
vt 0.315897 0.023196
vt 0.447433 0.004898
vt 0.435416 0.311459
vt 0.337572 0.293306
vt 0.661627 0.502900
vt 0.562475 0.483472
vt 0.563288 0.216048
vt 0.657058 0.170299
vt 0.779251 0.511042
vt 0.666294 0.503523
vt 0.661905 0.167891
vt 0.763704 0.114014
vt 0.436255 1.000000
vt 0.337640 0.981337
vt 0.274441 0.809766
vt 0.389276 0.803425
vt 0.106258 0.003398
vt 0.117747 0.486269
vt 0.000000 0.503217
vt 0.002494 0.102196
vt 0.452232 0.005787
vt 0.558850 0.052588
vt 0.534935 0.319574
vt 0.439756 0.312025
vt 0.389429 0.798875
vt 0.274561 0.805257
vt 0.329537 0.694629
vt 0.440054 0.671993
vt 0.117990 0.491912
vt 0.138539 0.818953
vt 0.036538 0.811597
vt 0.000301 0.508858
vt 1.000000 0.966267
vt 0.905045 0.993527
vt 0.901510 0.804727
vt 1.000000 0.809002
vt 0.999300 0.803615
vt 0.901249 0.799284
vt 0.891654 0.660188
vt 0.971046 0.688819
vt 0.890445 0.628820
vt 0.790020 0.585886
vt 0.797777 0.323100
vt 0.902400 0.316755
vt 0.993292 0.655146
vt 0.895254 0.630579
vt 0.906669 0.316708
vt 0.993292 0.320266
vt 0.900454 0.993959
vt 0.799517 0.984908
vt 0.786991 0.826239
vt 0.896826 0.805112
vt 0.270657 0.462806
vt 0.271025 0.730951
vt 0.143317 0.817169
vt 0.122780 0.491109
vt 0.902396 0.311142
vt 0.797795 0.317555
vt 0.791850 0.046185
vt 0.890278 0.003713
vt 0.698749 0.832556
vt 0.609216 0.754057
vt 0.563041 0.489173
vt 0.661979 0.508546
vt 0.993266 0.314650
vt 0.906667 0.311111
vt 0.895102 0.003789
vt 0.990851 0.048487
vt 0.253201 0.119703
vt 0.254421 0.116984
vt 0.256681 0.121591
vt 0.274441 0.730580
vt 0.272246 0.734965
vt 0.036590 0.814950
vt 0.033590 0.811872
vt 0.763900 0.108839
vt 0.766653 0.110799
vt 0.789203 0.589622
vt 0.786914 0.585861
vt 0.791238 0.042852
vt 0.788945 0.046691
vt 0.526555 0.590206
vt 0.523566 0.593999
vt 0.562475 0.052608
vt 0.560295 0.048576
vt 0.270527 0.457105
vt 0.274292 0.456602
vt 0.274441 0.462242
vt 0.782539 0.510655
vt 0.782684 0.516258
vt 0.794171 0.323448
vt 0.794191 0.317876
vt 0.538971 0.320153
vt 0.538644 0.325848
vt 0.890133 0.633566
vt 0.894860 0.635229
vt 0.890018 0.000000
vt 0.894585 0.000023
vt 0.699958 0.836973
vt 0.704412 0.838102
vt 0.657286 0.165211
vt 0.661929 0.162708
vt 0.106960 0.000149
vt 0.110951 0.000000
vt 0.111157 0.003312
vt 0.143463 0.821225
vt 0.138861 0.822524
vt 0.448214 0.000000
vt 0.452883 0.000701
vt 0.409033 0.618841
vt 0.404279 0.618442
vt 0.122550 0.485437
vt 0.786914 0.003183
vt 0.784236 0.000000
vt 0.559767 0.671809
vt 0.562475 0.667393
vt 0.563011 0.212001
vt 0.786914 0.815477
vt 0.993080 0.660044
vt 0.990730 0.044453
vt 0.784307 0.818934
vt 0.550257 0.815920
vt 0.550775 0.975220
vt 0.274441 0.564562
vn -0.9434 -0.3214 0.0816
vn -0.4304 0.5493 -0.7163
vn 0.1326 0.9837 0.1217
vn -0.2859 0.9436 0.1671
vn 0.3594 0.5591 -0.7472
vn -0.3575 0.4682 0.8081
vn 0.1677 0.9826 -0.0804
vn -0.9465 0.3171 -0.0596
vn -0.9710 -0.2315 -0.0591
vn 0.5109 -0.1857 -0.8393
vn -0.1881 -0.9818 -0.0263
vn -0.2478 0.9641 -0.0949
vn -0.4753 0.0010 -0.8798
vn -0.2028 -0.9765 0.0726
vn 0.4079 -0.2936 0.8645
vn -0.2875 -0.0780 0.9546
vn 0.9515 0.3051 -0.0390
vn 0.9569 -0.2843 -0.0596
vn 0.2612 0.4519 0.8530
vn 0.1484 -0.9879 0.0444
vn 0.9508 0.3068 0.0428
vn -0.9288 0.3611 0.0835
vn 0.9533 -0.2957 0.0622
vn 0.7297 -0.5816 -0.3597
vn 0.6256 -0.7067 0.3306
vn -0.5208 -0.6678 0.5318
vn -0.7747 -0.4978 -0.3900
vn 0.6309 0.7181 -0.2938
vn 0.5978 0.7356 0.3185
vn -0.6485 0.6933 0.3143
vn -0.6229 0.6805 -0.3859
vn 0.6444 -0.7647 0.0030
vn -0.6892 -0.7239 0.0329
vn 0.6115 0.7912 0.0066
vn -0.6866 0.7260 0.0382
vn 0.8487 0.1469 -0.5080
vn 0.8142 0.0016 0.5805
vn -0.7771 0.1572 0.6094
vn -0.8695 0.1781 -0.4607
vn -0.9978 0.0666 0.0039
vn 0.9836 0.1805 0.0010
vn -0.0039 -0.7521 -0.6590
vn 0.1042 -0.7724 0.6266
vn -0.0282 0.8983 -0.4385
vn -0.0882 0.8248 0.5585
vn 0.0611 0.9977 0.0298
vn -0.0139 -0.9997 0.0209
vn -0.0508 0.5010 -0.8640
vn 0.0823 0.1555 0.9844
vn 0.6459 -0.7631 0.0218
vn -0.2614 -0.6655 -0.6991
vn 0.8052 0.3644 -0.4677
vn -0.1880 -0.7443 0.6409
vn 0.7714 0.3686 0.5188
vn -0.6887 -0.7245 -0.0282
vn -0.7616 0.4095 0.5023
vn -0.8004 0.3583 -0.4806
vn 0.6244 0.7795 0.0496
vn -0.2480 0.8421 -0.4789
vn -0.2970 0.8184 0.4920
vn -0.6864 0.7262 -0.0386
vn 0.6581 -0.7527 -0.0193
vn -0.6554 -0.7495 0.0933
vn 0.6393 0.7682 -0.0352
vn -0.6891 0.7169 0.1062
vn -0.9593 -0.2822 0.0133
vn 0.9309 -0.3654 0.0007
vn 0.2066 0.9782 0.0189
vn -0.2332 -0.9721 0.0249
vn 0.8532 -0.2053 -0.4795
vn 0.7865 -0.3507 0.5084
vn -0.7070 -0.0988 0.7003
vn -0.8813 0.0235 -0.4719
vn -0.9123 0.4093 0.0147
vn 0.9321 0.3623 0.0024
vn 0.9920 0.0980 -0.0796
vn -0.9958 0.0172 0.0900
vn -0.5769 0.3515 -0.7373
vn -0.9947 0.0468 -0.0911
vn -0.4140 0.1557 0.8969
vn 0.9930 0.0855 0.0811
vn 0.4137 -0.6707 -0.6156
vn 0.3333 -0.7801 0.5295
vn 0.1978 0.8674 -0.4566
vn 0.1442 0.8318 0.5360
vn -0.3550 0.9342 0.0359
vn 0.2043 -0.9789 0.0093
vn 0.5022 0.3303 -0.7992
vn 0.3494 0.0821 0.9334
vn 0.1366 -0.2340 0.9626
vn -0.0341 0.6935 -0.7197
vn -0.0162 -0.9989 -0.0444
vn 0.0195 0.9930 -0.1163
vn -0.0269 -0.2513 -0.9675
vn -0.0041 0.5211 0.8535
vn -0.0178 0.9839 0.1776
vn -0.0232 -0.9964 0.0811
vn 0.1593 -0.9869 -0.0276
s off
f 8/1/1 51/2/1 58/3/1 31/4/1
f 76/5/2 90/6/2 54/7/2 24/8/2
f 36/9/3 81/10/3 80/11/3 18/12/3
f 84/13/4 40/14/4 21/15/4 77/16/4
f 13/17/5 41/18/5 91/19/5 75/20/5
f 93/21/6 78/22/6 20/23/6 49/24/6
f 14/25/7 74/26/7 82/27/7 35/28/7
f 60/29/8 38/30/8 22/31/8 53/32/8
f 32/33/9 57/34/9 56/35/9 12/36/9
f 44/37/10 2/38/10 66/39/10 92/40/10
f 68/41/11 86/42/11 29/43/11 11/44/11
f 73/45/12 23/46/12 37/47/12 83/48/12
f 89/49/13 65/50/13 10/51/13 55/52/13
f 85/53/14 69/54/14 9/55/14 30/56/14
f 6/57/15 46/58/15 95/59/15 71/60/15
f 72/61/16 94/62/16 52/63/16 7/64/16
f 42/65/17 15/66/17 34/67/17 63/68/17
f 3/69/18 43/70/18 62/71/18 27/72/18
f 45/73/19 16/74/19 79/75/19 96/76/19
f 25/77/20 4/78/20 70/79/20 88/80/20
f 64/81/21 33/82/21 17/83/21 48/84/21
f 50/85/22 19/86/22 39/87/22 59/88/22
f 28/89/23 61/90/23 47/91/23 5/92/23
f 1/93/24 2/94/24 3/95/24
f 4/78/25 5/96/25 6/97/25
f 7/98/26 8/99/26 9/55/26
f 10/100/27 11/101/27 12/36/27
f 13/102/28 14/103/28 15/66/28
f 16/104/29 17/83/29 18/105/29
f 19/106/30 20/107/30 21/15/30
f 22/108/31 23/46/31 24/109/31
f 25/77/32 26/110/32 27/111/32 28/112/32
f 29/113/33 30/114/33 31/4/33 32/33/33
f 33/82/34 34/67/34 35/115/34 36/116/34
f 37/47/35 38/117/35 39/118/35 40/14/35
f 41/119/36 42/65/36 43/70/36 44/120/36
f 45/121/37 46/122/37 47/91/37 48/84/37
f 49/123/38 50/85/38 51/2/38 52/124/38
f 53/32/39 54/125/39 55/126/39 56/35/39
f 57/34/40 58/3/40 59/88/40 60/29/40
f 61/90/41 62/71/41 63/68/41 64/81/41
f 65/127/42 66/128/42 67/129/42 68/41/42
f 69/54/43 70/79/43 71/130/43 72/131/43
f 73/45/44 74/26/44 75/132/44 76/133/44
f 77/16/45 78/134/45 79/135/45 80/11/45
f 81/10/46 82/27/46 83/48/46 84/13/46
f 85/53/47 86/42/47 87/136/47 88/80/47
f 89/49/48 90/6/48 91/19/48 92/40/48
f 93/21/49 94/62/49 95/59/49 96/76/49
f 28/112/50 5/96/50 4/78/50 25/77/50
f 68/137/51 11/101/51 10/100/51 65/138/51
f 41/119/52 13/102/52 15/66/52 42/65/52
f 72/131/53 7/98/53 9/55/53 69/54/53
f 48/84/54 17/83/54 16/104/54 45/121/54
f 32/33/55 12/36/55 11/101/55 29/113/55
f 49/139/56 20/107/56 19/106/56 50/140/56
f 53/32/57 22/31/57 24/141/57 54/125/57
f 36/116/58 18/105/58 17/83/58 33/82/58
f 76/133/59 24/109/59 23/46/59 73/45/59
f 77/16/60 21/15/60 20/107/60 78/134/60
f 37/47/61 23/46/61 22/108/61 38/117/61
f 3/95/62 27/111/62 26/110/62 1/93/62
f 8/1/63 31/4/63 30/114/63 9/142/63
f 14/103/64 35/115/64 34/67/64 15/66/64
f 21/15/65 40/14/65 39/118/65 19/106/65
f 57/34/66 32/33/66 31/4/66 58/3/66
f 61/90/67 28/89/67 27/72/67 62/71/67
f 81/10/68 36/9/68 35/28/68 82/27/68
f 85/53/69 30/56/69 29/43/69 86/42/69
f 2/143/70 44/120/70 43/70/70 3/69/70
f 5/92/71 47/91/71 46/122/71 6/144/71
f 7/145/72 52/124/72 51/2/72 8/1/72
f 12/36/73 56/35/73 55/126/73 10/100/73
f 38/30/74 60/29/74 59/88/74 39/87/74
f 33/82/75 64/81/75 63/68/75 34/67/75
f 42/65/76 63/68/76 62/71/76 43/70/76
f 50/85/77 59/88/77 58/3/77 51/2/77
f 89/49/78 55/52/78 54/7/78 90/6/78
f 60/29/79 53/32/79 56/35/79 57/34/79
f 93/21/80 49/24/80 52/63/80 94/62/80
f 64/81/81 48/84/81 47/91/81 61/90/81
f 1/93/82 67/129/82 66/128/82 2/94/82
f 6/97/83 71/130/83 70/79/83 4/78/83
f 13/17/84 75/20/84 74/146/84 14/147/84
f 18/12/85 80/11/85 79/135/85 16/148/85
f 40/14/86 84/13/86 83/48/86 37/47/86
f 25/77/87 88/80/87 87/136/87 26/110/87
f 44/37/88 92/40/88 91/19/88 41/18/88
f 45/73/89 96/76/89 95/59/89 46/58/89
f 94/62/90 72/61/90 71/60/90 95/59/90
f 90/6/91 76/5/91 75/20/91 91/19/91
f 86/42/92 68/41/92 67/129/92 87/136/92
f 73/45/93 83/48/93 82/27/93 74/26/93
f 65/50/94 89/49/94 92/40/94 66/39/94
f 78/22/95 93/21/95 96/76/95 79/75/95
f 84/13/96 77/16/96 80/11/96 81/10/96
f 69/54/97 85/53/97 88/80/97 70/79/97
f 1/93/98 26/110/98 87/136/98 67/129/98
