# MagicaVoxel @ Ephtracy

# group
g Link_rod

# material
mtllib Link_rod.mtl
usemtl palette

# normals
vn -1 0 0
vn 1 0 0
vn 0 0 1
vn 0 0 -1
vn 0 -1 0
vn 0 1 0

# texcoords
vt 0.115234 0.5
vt 0.181641 0.5
vt 0.240234 0.5

# verts
v -15 26 6
v -15 26 5
v -15 28 6
v -15 28 5
v -14 23 6
v -14 23 5
v -14 26 6
v -14 26 5
v -14 28 6
v -14 28 5
v -14 29 6
v -14 29 5
v -13 14 6
v -13 14 5
v -13 23 6
v -13 23 5
v -11 28 6
v -11 28 5
v -11 29 6
v -11 29 5
v -12 28 6
v -12 28 5
v -12 29 6
v -12 29 5
v -10 14 6
v -10 14 5
v -10 23 6
v -10 23 5
v -9 23 6
v -9 23 5
v -9 26 6
v -9 26 5
v -9 28 6
v -9 28 5
v -9 29 6
v -9 29 5
v -8 26 6
v -8 26 5
v -8 28 6
v -8 28 5
v -15 26 6
v -15 28 6
v -14 23 6
v -14 26 6
v -14 27 6
v -14 28 6
v -14 29 6
v -13 14 6
v -13 23 6
v -13 24 6
v -13 25 6
v -13 26 6
v -13 27 6
v -13 28 6
v -12 15 6
v -12 16 6
v -12 17 6
v -12 21 6
v -12 22 6
v -12 23 6
v -12 26 6
v -12 27 6
v -12 28 6
v -12 29 6
v -11 15 6
v -11 16 6
v -11 17 6
v -11 21 6
v -11 22 6
v -11 23 6
v -11 26 6
v -11 27 6
v -11 28 6
v -11 29 6
v -10 14 6
v -10 23 6
v -10 24 6
v -10 25 6
v -10 26 6
v -10 27 6
v -10 28 6
v -9 23 6
v -9 26 6
v -9 27 6
v -9 28 6
v -9 29 6
v -8 26 6
v -8 28 6
v -15 26 5
v -15 28 5
v -14 23 5
v -14 26 5
v -14 27 5
v -14 28 5
v -14 29 5
v -13 14 5
v -13 23 5
v -13 24 5
v -13 25 5
v -13 26 5
v -13 27 5
v -13 28 5
v -12 15 5
v -12 16 5
v -12 17 5
v -12 21 5
v -12 22 5
v -12 23 5
v -12 26 5
v -12 27 5
v -12 28 5
v -12 29 5
v -11 15 5
v -11 16 5
v -11 17 5
v -11 21 5
v -11 22 5
v -11 23 5
v -11 26 5
v -11 27 5
v -11 28 5
v -11 29 5
v -10 14 5
v -10 23 5
v -10 24 5
v -10 25 5
v -10 26 5
v -10 27 5
v -10 28 5
v -9 23 5
v -9 26 5
v -9 27 5
v -9 28 5
v -9 29 5
v -8 26 5
v -8 28 5
v -13 14 6
v -10 14 6
v -13 14 5
v -10 14 5
v -14 23 6
v -13 23 6
v -10 23 6
v -9 23 6
v -14 23 5
v -13 23 5
v -10 23 5
v -9 23 5
v -15 26 6
v -14 26 6
v -9 26 6
v -8 26 6
v -15 26 5
v -14 26 5
v -9 26 5
v -8 26 5
v -15 28 6
v -14 28 6
v -12 28 6
v -11 28 6
v -9 28 6
v -8 28 6
v -15 28 5
v -14 28 5
v -12 28 5
v -11 28 5
v -9 28 5
v -8 28 5
v -14 29 6
v -12 29 6
v -11 29 6
v -9 29 6
v -14 29 5
v -12 29 5
v -11 29 5
v -9 29 5

# faces
f 3/3/1 2/3/1 1/3/1
f 4/3/1 2/3/1 3/3/1
f 7/3/1 6/3/1 5/3/1
f 8/3/1 6/3/1 7/3/1
f 11/3/1 10/3/1 9/3/1
f 12/3/1 10/3/1 11/3/1
f 15/3/1 14/3/1 13/3/1
f 16/3/1 14/3/1 15/3/1
f 19/3/1 18/3/1 17/3/1
f 20/3/1 18/3/1 19/3/1
f 21/3/2 22/3/2 23/3/2
f 23/3/2 22/3/2 24/3/2
f 25/3/2 26/3/2 27/3/2
f 27/3/2 26/3/2 28/3/2
f 29/3/2 30/3/2 31/3/2
f 31/3/2 30/3/2 32/3/2
f 33/3/2 34/3/2 35/3/2
f 35/3/2 34/3/2 36/3/2
f 37/3/2 38/3/2 39/3/2
f 39/3/2 38/3/2 40/3/2
f 44/3/3 42/3/3 41/3/3
f 45/3/3 42/3/3 44/3/3
f 46/3/3 42/3/3 45/3/3
f 49/3/3 44/3/3 43/3/3
f 49/3/3 45/3/3 44/3/3
f 50/3/3 45/3/3 49/3/3
f 51/3/3 45/3/3 50/3/3
f 52/3/3 45/3/3 51/3/3
f 53/1/3 46/1/3 45/1/3
f 53/3/3 45/3/3 52/3/3
f 54/3/3 47/3/3 46/3/3
f 54/1/3 46/1/3 53/1/3
f 55/3/3 49/3/3 48/3/3
f 56/3/3 49/3/3 55/3/3
f 57/3/3 49/3/3 56/3/3
f 58/3/3 49/3/3 57/3/3
f 59/3/3 49/3/3 58/3/3
f 60/1/3 50/1/3 49/1/3
f 60/3/3 49/3/3 59/3/3
f 61/3/3 53/3/3 52/3/3
f 61/2/3 52/2/3 51/2/3
f 61/3/3 54/3/3 53/3/3
f 62/3/3 54/3/3 61/3/3
f 63/3/3 47/3/3 54/3/3
f 63/3/3 54/3/3 62/3/3
f 64/3/3 47/3/3 63/3/3
f 65/3/3 55/3/3 48/3/3
f 65/1/3 56/1/3 55/1/3
f 66/3/3 57/3/3 56/3/3
f 66/1/3 56/1/3 65/1/3
f 67/2/3 58/2/3 57/2/3
f 67/3/3 57/3/3 66/3/3
f 68/3/3 59/3/3 58/3/3
f 68/2/3 58/2/3 67/2/3
f 69/1/3 60/1/3 59/1/3
f 69/3/3 59/3/3 68/3/3
f 70/1/3 50/1/3 60/1/3
f 70/1/3 60/1/3 69/1/3
f 71/2/3 62/2/3 61/2/3
f 71/2/3 61/2/3 51/2/3
f 72/3/3 63/3/3 62/3/3
f 72/2/3 62/2/3 71/2/3
f 73/3/3 63/3/3 72/3/3
f 75/3/3 69/3/3 68/3/3
f 75/3/3 68/3/3 67/3/3
f 75/3/3 67/3/3 66/3/3
f 75/3/3 66/3/3 65/3/3
f 75/3/3 70/3/3 69/3/3
f 75/3/3 65/3/3 48/3/3
f 76/1/3 50/1/3 70/1/3
f 76/3/3 70/3/3 75/3/3
f 77/3/3 51/3/3 50/3/3
f 77/1/3 50/1/3 76/1/3
f 78/2/3 71/2/3 51/2/3
f 78/3/3 51/3/3 77/3/3
f 79/3/3 74/3/3 73/3/3
f 79/2/3 71/2/3 78/2/3
f 79/3/3 73/3/3 72/3/3
f 79/3/3 72/3/3 71/3/3
f 80/3/3 74/3/3 79/3/3
f 81/3/3 74/3/3 80/3/3
f 82/3/3 78/3/3 77/3/3
f 82/3/3 77/3/3 76/3/3
f 82/3/3 80/3/3 79/3/3
f 82/3/3 79/3/3 78/3/3
f 83/3/3 80/3/3 82/3/3
f 84/1/3 81/1/3 80/1/3
f 84/3/3 80/3/3 83/3/3
f 85/3/3 74/3/3 81/3/3
f 85/1/3 81/1/3 84/1/3
f 86/3/3 74/3/3 85/3/3
f 87/3/3 84/3/3 83/3/3
f 87/3/3 85/3/3 84/3/3
f 88/3/3 85/3/3 87/3/3
f 89/3/4 90/3/4 92/3/4
f 92/3/4 90/3/4 93/3/4
f 93/3/4 90/3/4 94/3/4
f 91/3/4 92/3/4 97/3/4
f 92/3/4 93/3/4 97/3/4
f 97/3/4 93/3/4 98/3/4
f 98/3/4 93/3/4 99/3/4
f 99/3/4 93/3/4 100/3/4
f 93/1/4 94/1/4 101/1/4
f 100/3/4 93/3/4 101/3/4
f 94/3/4 95/3/4 102/3/4
f 101/1/4 94/1/4 102/1/4
f 96/3/4 97/3/4 103/3/4
f 103/3/4 97/3/4 104/3/4
f 104/3/4 97/3/4 105/3/4
f 105/3/4 97/3/4 106/3/4
f 106/3/4 97/3/4 107/3/4
f 97/1/4 98/1/4 108/1/4
f 107/3/4 97/3/4 108/3/4
f 100/3/4 101/3/4 109/3/4
f 99/2/4 100/2/4 109/2/4
f 101/3/4 102/3/4 109/3/4
f 109/3/4 102/3/4 110/3/4
f 102/3/4 95/3/4 111/3/4
f 110/3/4 102/3/4 111/3/4
f 111/3/4 95/3/4 112/3/4
f 96/3/4 103/3/4 113/3/4
f 103/1/4 104/1/4 113/1/4
f 104/3/4 105/3/4 114/3/4
f 113/1/4 104/1/4 114/1/4
f 105/2/4 106/2/4 115/2/4
f 114/3/4 105/3/4 115/3/4
f 106/3/4 107/3/4 116/3/4
f 115/2/4 106/2/4 116/2/4
f 107/1/4 108/1/4 117/1/4
f 116/3/4 107/3/4 117/3/4
f 108/1/4 98/1/4 118/1/4
f 117/1/4 108/1/4 118/1/4
f 109/2/4 110/2/4 119/2/4
f 99/2/4 109/2/4 119/2/4
f 110/3/4 111/3/4 120/3/4
f 119/2/4 110/2/4 120/2/4
f 120/3/4 111/3/4 121/3/4
f 116/3/4 117/3/4 123/3/4
f 115/3/4 116/3/4 123/3/4
f 114/3/4 115/3/4 123/3/4
f 113/3/4 114/3/4 123/3/4
f 117/3/4 118/3/4 123/3/4
f 96/3/4 113/3/4 123/3/4
f 118/1/4 98/1/4 124/1/4
f 123/3/4 118/3/4 124/3/4
f 98/3/4 99/3/4 125/3/4
f 124/1/4 98/1/4 125/1/4
f 99/2/4 119/2/4 126/2/4
f 125/3/4 99/3/4 126/3/4
f 121/3/4 122/3/4 127/3/4
f 126/2/4 119/2/4 127/2/4
f 120/3/4 121/3/4 127/3/4
f 119/3/4 120/3/4 127/3/4
f 127/3/4 122/3/4 128/3/4
f 128/3/4 122/3/4 129/3/4
f 125/3/4 126/3/4 130/3/4
f 124/3/4 125/3/4 130/3/4
f 127/3/4 128/3/4 130/3/4
f 126/3/4 127/3/4 130/3/4
f 130/3/4 128/3/4 131/3/4
f 128/1/4 129/1/4 132/1/4
f 131/3/4 128/3/4 132/3/4
f 129/3/4 122/3/4 133/3/4
f 132/1/4 129/1/4 133/1/4
f 133/3/4 122/3/4 134/3/4
f 131/3/4 132/3/4 135/3/4
f 132/3/4 133/3/4 135/3/4
f 135/3/4 133/3/4 136/3/4
f 139/3/5 138/3/5 137/3/5
f 140/3/5 138/3/5 139/3/5
f 145/3/5 142/3/5 141/3/5
f 146/3/5 142/3/5 145/3/5
f 147/3/5 144/3/5 143/3/5
f 148/3/5 144/3/5 147/3/5
f 153/3/5 150/3/5 149/3/5
f 154/3/5 150/3/5 153/3/5
f 155/3/5 152/3/5 151/3/5
f 156/3/5 152/3/5 155/3/5
f 157/3/6 158/3/6 163/3/6
f 163/3/6 158/3/6 164/3/6
f 159/3/6 160/3/6 165/3/6
f 165/3/6 160/3/6 166/3/6
f 161/3/6 162/3/6 167/3/6
f 167/3/6 162/3/6 168/3/6
f 169/3/6 170/3/6 173/3/6
f 173/3/6 170/3/6 174/3/6
f 171/3/6 172/3/6 175/3/6
f 175/3/6 172/3/6 176/3/6
